<?xml version="1.0" encoding="UTF-8" standalone="no"?>
<!DOCTYPE svg PUBLIC "-//W3C//DTD SVG 1.1//EN" "http://www.w3.org/Graphics/SVG/1.1/DTD/svg11.dtd">
<svg width="100%" height="100%" viewBox="0 0 1024 1024" version="1.1" xmlns="http://www.w3.org/2000/svg" xmlns:xlink="http://www.w3.org/1999/xlink" xml:space="preserve" xmlns:serif="http://www.serif.com/" style="fill-rule:evenodd;clip-rule:evenodd;stroke-linejoin:round;stroke-miterlimit:2;">
    <g transform="matrix(1,0,0,1,-26499.9,-6.18472)">
        <g id="App-Icon" serif:id="App Icon" transform="matrix(1,0,0,1,26499.9,6.18472)">
            <rect x="0" y="0" width="1024" height="1024" style="fill:none;"/>
            <path d="M1024,512C1024,229.42 794.58,0 512,0C229.42,0 0,229.42 0,512C0,794.58 229.42,1024 512,1024C794.58,1024 1024,794.58 1024,512Z" style="fill:rgb(247,58,83);"/>
            <g id="Plan-de-travail1" serif:id="Plan de travail1" transform="matrix(1.53825,0,0,1.53825,59.9741,41.976)">
                <g id="Back" transform="matrix(0.323874,0.323875,-0.485811,0.485812,310.235,-100.382)">
                    <g id="Left-hand-side" serif:id="Left hand side">
                        <g transform="matrix(1.2,1.9984e-16,-3.10863e-16,0.8,-5976.92,-14343.5)">
                            <path d="M5152.16,18482.8C5148.79,18479.4 5143.74,18478.4 5139.31,18480.1C5134.87,18481.8 5131.88,18486 5131.68,18490.8C5129.46,18548.7 5139.31,18607.2 5161.51,18662.4C5202.59,18764.5 5282.07,18845.6 5381.77,18889C5385.48,18890.6 5389.73,18890.2 5393.09,18888C5396.45,18885.8 5398.47,18882.1 5398.47,18878C5398.49,18865.5 5398.49,18847.6 5398.49,18828.5C5398.49,18764.9 5373.2,18703.8 5328.19,18658.8C5268.9,18599.5 5188.12,18518.7 5152.16,18482.8Z" style="fill:url(#_Linear1);"/>
                        </g>
                        <g transform="matrix(1.2,1.9984e-16,-3.10863e-16,0.8,-5976.92,-14343.5)">
                            <path d="M5229.8,18269.4C5225.82,18265.5 5220.21,18263.6 5214.64,18264.3C5209.07,18265.1 5204.17,18268.4 5201.4,18273.3C5193.82,18286.7 5185.35,18301.7 5185.35,18301.7C5170.72,18327.6 5159.04,18354.7 5150.34,18382.6C5148.39,18388.9 5150.11,18395.9 5154.82,18400.6C5190.12,18435.9 5338.78,18584.5 5384.83,18630.6C5387.12,18632.9 5390.56,18633.6 5393.55,18632.3C5396.54,18631.1 5398.49,18628.2 5398.49,18624.9L5398.49,18512.7C5398.49,18465 5379.53,18419.2 5345.77,18385.4C5306.62,18346.3 5255.71,18295.4 5229.8,18269.4Z" style="fill:url(#_Linear2);"/>
                        </g>
                        <g transform="matrix(1.2,1.9984e-16,-3.10863e-16,0.8,-5976.92,-14343.5)">
                            <path d="M5398.49,18329.1C5398.49,18333.2 5396.05,18336.8 5392.32,18338.4C5388.58,18339.9 5384.28,18339.1 5381.42,18336.2C5348.66,18303.5 5278.02,18232.8 5252.96,18207.8C5247.67,18202.5 5246.75,18194.2 5250.74,18187.9C5270.39,18156.8 5328.06,18065.3 5365.27,18006.4C5369.54,17999.6 5377.79,17996.5 5385.49,17998.7C5393.19,18000.9 5398.49,18008 5398.49,18016L5398.49,18329.1Z" style="fill:url(#_Linear3);"/>
                        </g>
                    </g>
                    <g id="Right-hand-side" serif:id="Right hand side">
                        <g transform="matrix(1.2,1.9984e-16,-3.10863e-16,0.8,-5848.65,-14346.6)">
                            <path d="M5725.28,18490.8C5725.09,18486 5722.1,18481.8 5717.67,18480.1C5713.23,18478.4 5708.2,18479.4 5704.83,18482.8C5668.86,18518.8 5588.08,18599.5 5528.78,18658.8C5483.78,18703.8 5458.49,18764.9 5458.49,18828.5L5458.49,18878C5458.49,18882.1 5460.52,18885.8 5463.88,18888C5467.25,18890.3 5471.51,18890.6 5475.21,18889.1C5574.91,18845.6 5654.39,18764.5 5695.47,18662.4C5717.67,18607.2 5727.52,18548.7 5725.28,18490.8Z" style="fill:url(#_Linear4);"/>
                        </g>
                        <g transform="matrix(1.2,1.9984e-16,-3.10863e-16,0.8,-5848.65,-14346.6)">
                            <path d="M5655.66,18273.5C5652.89,18268.6 5648,18265.2 5642.42,18264.5C5636.85,18263.7 5631.24,18265.6 5627.26,18269.6C5601.34,18295.5 5550.38,18346.5 5511.21,18385.6C5477.45,18419.4 5458.49,18465.2 5458.49,18512.9L5458.49,18625C5458.49,18628.2 5460.44,18631.1 5463.43,18632.3C5466.42,18633.6 5469.86,18632.9 5472.15,18630.6C5518.2,18584.6 5666.87,18435.9 5702.18,18400.6C5706.89,18395.9 5708.61,18388.9 5706.66,18382.6C5697.94,18354.7 5686.26,18327.6 5671.63,18301.7C5671.63,18301.7 5663.2,18286.8 5655.66,18273.5Z" style="fill:url(#_Linear5);"/>
                        </g>
                        <g transform="matrix(1.2,1.9984e-16,-3.10863e-16,0.8,-5848.65,-14346.6)">
                            <path d="M5606.32,18188C5610.31,18194.4 5609.39,18202.6 5604.11,18207.9C5579.04,18233 5508.33,18303.7 5475.56,18336.4C5472.7,18339.3 5468.4,18340.2 5464.66,18338.6C5460.93,18337.1 5458.49,18333.4 5458.49,18329.4L5458.49,18016C5458.49,18008 5463.79,18000.9 5471.49,17998.7C5479.19,17996.5 5487.44,17999.6 5491.71,18006.4C5528.94,18065.4 5586.67,18156.9 5606.32,18188Z" style="fill:url(#_Linear6);"/>
                        </g>
                    </g>
                </g>
                <g id="Front" transform="matrix(0.361717,0.361718,-0.365385,0.365385,5071.66,-8402.01)">
                    <g id="Right-hand-side1" serif:id="Right hand side">
                        <path d="M5725.39,18493.7C5725.21,18488.5 5721.93,18483.8 5717.03,18481.9C5712.14,18479.9 5706.56,18481.1 5702.83,18484.8C5667.44,18520.2 5593.37,18594.2 5536.01,18651.6C5486.37,18701.2 5458.49,18768.6 5458.49,18838.8L5458.49,18876.1C5458.49,18880.6 5460.73,18884.8 5464.46,18887.2C5468.19,18889.7 5472.9,18890.1 5476.99,18888.3C5575.85,18844.7 5654.64,18763.9 5695.47,18662.4C5717.29,18608.2 5727.18,18550.7 5725.39,18493.7Z" style="fill:url(#_Linear7);"/>
                        <path d="M5656.86,18275.6C5653.81,18270.2 5648.4,18266.5 5642.26,18265.7C5636.11,18264.8 5629.93,18266.9 5625.54,18271.3C5600.36,18296.5 5554.1,18342.8 5516.63,18380.2C5479.4,18417.4 5458.49,18467.9 5458.49,18520.6L5458.49,18623C5458.49,18626.5 5460.64,18629.8 5463.94,18631.1C5467.23,18632.5 5471.03,18631.7 5473.55,18629.2C5520.79,18582 5665.07,18437.7 5701.39,18401.4C5706.6,18396.2 5708.49,18388.5 5706.31,18381.5C5697.63,18354 5686.06,18327.2 5671.63,18301.7C5671.63,18301.7 5664.07,18288.3 5656.86,18275.6Z" style="fill:url(#_Linear8);"/>
                        <path d="M5605.62,18186.9C5610.02,18193.9 5609.01,18203 5603.18,18208.8C5577.79,18234.2 5510.38,18301.6 5477.32,18334.7C5474.16,18337.8 5469.42,18338.8 5465.3,18337.1C5461.18,18335.4 5458.49,18331.3 5458.49,18326.9L5458.49,18022.4C5458.49,18013.5 5464.34,18005.8 5472.83,18003.3C5481.32,18000.8 5490.41,18004.3 5495.13,18011.8C5531.94,18070.1 5585.95,18155.7 5605.62,18186.9Z" style="fill:url(#_Linear9);"/>
                    </g>
                    <g id="Left-hand-side1" serif:id="Left hand side">
                        <path d="M5154.16,18484.8C5150.43,18481.1 5144.85,18479.9 5139.94,18481.8C5135.04,18483.8 5131.75,18488.4 5131.58,18493.7C5129.8,18550.7 5139.69,18608.2 5161.51,18662.4C5202.34,18763.9 5281.13,18844.7 5380,18888.3C5384.09,18890 5388.78,18889.6 5392.51,18887.2C5396.23,18884.7 5398.47,18880.6 5398.47,18876.1C5398.49,18866.1 5398.49,18853 5398.49,18838.7C5398.49,18768.5 5370.61,18701.2 5320.97,18651.6C5263.61,18594.2 5189.54,18520.2 5154.16,18484.8Z" style="fill:url(#_Linear10);"/>
                        <path d="M5231.52,18271.2C5227.13,18266.8 5220.95,18264.7 5214.8,18265.5C5208.65,18266.4 5203.25,18270 5200.2,18275.4C5192.96,18288.2 5185.35,18301.7 5185.35,18301.7C5170.92,18327.2 5159.35,18354 5150.69,18381.5C5148.51,18388.5 5150.4,18396.1 5155.61,18401.3C5191.91,18437.7 5336.19,18582 5383.43,18629.2C5385.95,18631.7 5389.75,18632.5 5393.04,18631.1C5396.34,18629.7 5398.49,18626.5 5398.49,18623L5398.49,18520.4C5398.49,18467.7 5377.58,18417.2 5340.35,18380C5302.91,18342.6 5256.69,18296.3 5231.52,18271.2Z" style="fill:rgb(241,251,184);"/>
                        <path d="M5398.49,18326.7C5398.49,18331.1 5395.8,18335.1 5391.68,18336.8C5387.56,18338.6 5382.82,18337.6 5379.66,18334.5C5346.61,18301.4 5279.26,18234.1 5253.89,18208.7C5248.06,18202.9 5247.04,18193.8 5251.44,18186.8C5271.11,18155.6 5325.07,18070.1 5361.85,18011.8C5366.57,18004.3 5375.66,18000.8 5384.15,18003.3C5392.64,18005.8 5398.49,18013.5 5398.49,18022.4L5398.49,18326.7Z" style="fill:url(#_Linear11);"/>
                    </g>
                </g>
            </g>
        </g>
    </g>
    <defs>
        <linearGradient id="_Linear1" x1="0" y1="0" x2="1" y2="0" gradientUnits="userSpaceOnUse" gradientTransform="matrix(-355.453,-346.416,346.416,-355.454,5440.52,18578.9)"><stop offset="0" style="stop-color:rgb(140,35,40);stop-opacity:0.5"/><stop offset="0.43" style="stop-color:rgb(140,35,40);stop-opacity:0.47"/><stop offset="1" style="stop-color:rgb(140,35,40);stop-opacity:0.4"/></linearGradient>
        <linearGradient id="_Linear2" x1="0" y1="0" x2="1" y2="0" gradientUnits="userSpaceOnUse" gradientTransform="matrix(-355.453,-346.416,346.416,-355.454,5440.52,18578.9)"><stop offset="0" style="stop-color:rgb(140,35,40);stop-opacity:0.5"/><stop offset="0.43" style="stop-color:rgb(140,35,40);stop-opacity:0.47"/><stop offset="1" style="stop-color:rgb(140,35,40);stop-opacity:0.4"/></linearGradient>
        <linearGradient id="_Linear3" x1="0" y1="0" x2="1" y2="0" gradientUnits="userSpaceOnUse" gradientTransform="matrix(-355.453,-346.416,346.416,-355.454,5440.52,18578.9)"><stop offset="0" style="stop-color:rgb(140,35,40);stop-opacity:0.5"/><stop offset="0.43" style="stop-color:rgb(140,35,40);stop-opacity:0.47"/><stop offset="1" style="stop-color:rgb(140,35,40);stop-opacity:0.4"/></linearGradient>
        <linearGradient id="_Linear4" x1="0" y1="0" x2="1" y2="0" gradientUnits="userSpaceOnUse" gradientTransform="matrix(400.638,-394.614,394.613,400.637,5405.93,18582.8)"><stop offset="0" style="stop-color:rgb(140,35,40);stop-opacity:0.5"/><stop offset="1" style="stop-color:rgb(140,35,40);stop-opacity:0.5"/></linearGradient>
        <linearGradient id="_Linear5" x1="0" y1="0" x2="1" y2="0" gradientUnits="userSpaceOnUse" gradientTransform="matrix(400.638,-394.614,394.613,400.637,5405.93,18582.8)"><stop offset="0" style="stop-color:rgb(140,35,40);stop-opacity:0.5"/><stop offset="1" style="stop-color:rgb(140,35,40);stop-opacity:0.5"/></linearGradient>
        <linearGradient id="_Linear6" x1="0" y1="0" x2="1" y2="0" gradientUnits="userSpaceOnUse" gradientTransform="matrix(400.638,-394.614,394.613,400.637,5405.93,18582.8)"><stop offset="0" style="stop-color:rgb(140,35,40);stop-opacity:0.5"/><stop offset="1" style="stop-color:rgb(140,35,40);stop-opacity:0.5"/></linearGradient>
        <linearGradient id="_Linear7" x1="0" y1="0" x2="1" y2="0" gradientUnits="userSpaceOnUse" gradientTransform="matrix(263.129,-262.562,265.224,260.487,5458.93,18823.6)"><stop offset="0" style="stop-color:rgb(241,251,184);stop-opacity:1"/><stop offset="0.57" style="stop-color:rgb(242,252,186);stop-opacity:1"/><stop offset="0.8" style="stop-color:rgb(245,254,189);stop-opacity:1"/><stop offset="1" style="stop-color:rgb(247,255,192);stop-opacity:1"/></linearGradient>
        <linearGradient id="_Linear8" x1="0" y1="0" x2="1" y2="0" gradientUnits="userSpaceOnUse" gradientTransform="matrix(223.66,-217.109,219.31,221.415,5458.49,18538.6)"><stop offset="0" style="stop-color:rgb(241,251,184);stop-opacity:1"/><stop offset="1" style="stop-color:rgb(247,255,192);stop-opacity:1"/></linearGradient>
        <linearGradient id="_Linear9" x1="0" y1="0" x2="1" y2="0" gradientUnits="userSpaceOnUse" gradientTransform="matrix(120.438,-118.205,119.403,119.229,5458.49,18262.8)"><stop offset="0" style="stop-color:rgb(241,251,184);stop-opacity:1"/><stop offset="0.55" style="stop-color:rgb(242,252,186);stop-opacity:1"/><stop offset="1" style="stop-color:rgb(247,255,192);stop-opacity:1"/></linearGradient>
        <linearGradient id="_Linear10" x1="0" y1="0" x2="1" y2="0" gradientUnits="userSpaceOnUse" gradientTransform="matrix(-263.002,-260.362,263.002,-260.363,5395.71,18800.4)"><stop offset="0" style="stop-color:rgb(241,251,184);stop-opacity:1"/><stop offset="0.56" style="stop-color:rgb(242,252,186);stop-opacity:1"/><stop offset="1" style="stop-color:rgb(247,255,192);stop-opacity:1"/></linearGradient>
        <linearGradient id="_Linear11" x1="0" y1="0" x2="1" y2="0" gradientUnits="userSpaceOnUse" gradientTransform="matrix(-118.889,-111.03,112.155,-117.696,5398.49,18253.2)"><stop offset="0" style="stop-color:rgb(241,251,184);stop-opacity:1"/><stop offset="0.52" style="stop-color:rgb(242,252,186);stop-opacity:1"/><stop offset="1" style="stop-color:rgb(247,255,192);stop-opacity:1"/></linearGradient>
    </defs>
</svg>
